<svg width="142" height="30" viewBox="0 0 142 30" fill="none" xmlns="http://www.w3.org/2000/svg">
<g clip-path="url(#clip0)">
<path d="M82.9332 17.4006H78.2194V19.6105H82.9332V17.4006Z" fill="#3AAA35"/>
<path d="M61.3912 13.7758H63.919V23.1399H66.415V13.7758H68.9508V11.5819H61.3912V13.7758ZM57.9174 15.8982H53.4579V11.5819H50.9619V23.1399H53.4579V18.1319H57.9174V23.1399H60.4134V11.5819H57.9174V15.8982ZM40.3896 11.5819H37.8856V20.9539H33.7361V11.5819H31.2401V23.1399H39.4118V25.6757H41.7409V20.9539H40.3896V11.5819ZM117.091 23.1399H123.641V20.9539H119.587V18.1876H123.474V15.9857H119.587V13.7758H123.641V11.5819H117.091V23.1399ZM113.673 16.9157C114.005 16.6698 114.273 16.3466 114.453 15.9741C114.633 15.6016 114.72 15.1909 114.706 14.7774C114.718 14.3124 114.625 13.8506 114.434 13.4267C114.243 13.0027 113.958 12.6274 113.601 12.3291C112.759 11.7781 111.759 11.5185 110.755 11.5898H107.814V23.1399H111.749C112.818 23.2069 113.874 22.8693 114.706 22.194C115.032 21.8895 115.291 21.5199 115.464 21.109C115.638 20.6982 115.724 20.2553 115.715 19.8092C115.73 19.4006 115.662 18.9933 115.514 18.612C115.367 18.2307 115.143 17.8835 114.857 17.5914C114.525 17.2727 114.117 17.043 113.673 16.9237V16.9157ZM110.31 13.6725H110.795C111.18 13.6565 111.56 13.7592 111.884 13.9666C112.033 14.0785 112.152 14.2258 112.229 14.3951C112.307 14.5645 112.341 14.7505 112.329 14.9364C112.34 15.2013 112.274 15.4637 112.138 15.6916C111.968 15.9359 111.713 16.1086 111.423 16.1765C111.213 16.2322 110.996 16.2589 110.779 16.256H110.31V13.6725ZM113.013 20.2226C112.911 20.4485 112.741 20.6373 112.528 20.7631C112.086 20.9782 111.596 21.0767 111.105 21.0493H110.31V18.283H110.97C111.459 18.2487 111.949 18.3191 112.409 18.4897C112.671 18.5959 112.885 18.7936 113.013 19.0461C113.102 19.2292 113.149 19.4305 113.148 19.6343C113.152 19.8504 113.108 20.0647 113.021 20.2623L113.013 20.2226ZM42.7822 23.1399H49.3323V20.9539H45.3101V18.1876H49.1972V15.9857H45.3101V13.7758H49.3641V11.5819H42.7822V23.1399ZM134.34 11.5819V13.7758H136.876V23.1399H139.372V13.7758H141.908V11.5819H134.34ZM76.423 12.4801C76.0282 12.1258 75.5537 11.8722 75.0398 11.7409C74.4846 11.6145 73.9158 11.5584 73.3466 11.5739H69.9524V23.1399H72.4563V18.9746H73.6884C74.226 19.0082 74.7648 18.9334 75.2729 18.7545C75.7809 18.5756 76.2477 18.2963 76.6455 17.9332C77.2941 17.216 77.6414 16.2766 77.6153 15.31C77.6269 14.7802 77.5259 14.254 77.319 13.7662C77.1121 13.2784 76.8039 12.84 76.415 12.4801H76.423ZM74.5072 16.4547C74.1091 16.7119 73.6356 16.8268 73.1638 16.7806H72.4245V13.7758H73.0287C73.5381 13.7326 74.0485 13.8463 74.4913 14.1017C74.6712 14.2361 74.8162 14.4116 74.9144 14.6135C75.0126 14.8154 75.061 15.0379 75.0557 15.2623C75.0587 15.4893 75.0111 15.7142 74.9162 15.9205C74.8213 16.1267 74.6816 16.3092 74.5072 16.4547ZM130.708 11.3275C129.149 11.2567 127.626 11.8054 126.471 12.8537C125.865 13.4361 125.387 14.1385 125.068 14.9159C124.749 15.6934 124.596 16.5288 124.619 17.3688C124.603 18.1691 124.75 18.9641 125.051 19.7057C125.352 20.4474 125.8 21.1203 126.369 21.6836C126.937 22.247 127.614 22.689 128.359 22.9831C129.103 23.2771 129.9 23.417 130.7 23.3943C131.692 23.4082 132.672 23.176 133.553 22.7186L133.633 22.6788V19.6105L133.363 19.9285C133.056 20.2972 132.672 20.5939 132.238 20.7973C131.804 21.0006 131.33 21.1057 130.851 21.1049C129.923 21.1099 129.026 20.7731 128.331 20.159C127.955 19.8087 127.658 19.3821 127.461 18.9077C127.263 18.4333 127.17 17.9222 127.186 17.4086C127.179 16.4391 127.527 15.5005 128.164 14.7695C128.49 14.4045 128.891 14.1141 129.34 13.918C129.788 13.7218 130.274 13.6245 130.763 13.6327C131.258 13.6381 131.746 13.7494 132.195 13.9592C132.643 14.169 133.041 14.4724 133.363 14.849L133.633 15.159V12.0827L133.553 12.0429C132.683 11.5697 131.706 11.3262 130.715 11.3354L130.708 11.3275ZM86.7091 18.8553V11.5819H84.2131V23.1399H86.1288L91.9397 15.8347V23.1399H94.4357V11.5819H92.4881L86.7091 18.8553ZM103.339 15.8982H98.8792V11.5819H96.3832V23.1399H98.8792V18.1319H103.339V23.1399H105.835V11.5819H103.339V15.8982Z" fill="#3AAA35"/>
<path d="M36.6773 4.33227C36.0234 3.78746 35.1908 3.50426 34.3403 3.53736H33.283V1.8283H36.7171V0H31.2401V9.26073H34.3482C34.8111 9.26862 35.2724 9.20426 35.7155 9.06995C36.252 8.90462 36.7187 8.56643 37.043 8.10811C37.3819 7.61463 37.5621 7.02949 37.5597 6.43084C37.5699 6.03773 37.4958 5.64699 37.3422 5.28498C37.1886 4.92296 36.9592 4.59809 36.6694 4.33227H36.6773ZM35.2067 7.10652C34.8498 7.37646 34.404 7.50141 33.9587 7.45628H33.283V5.38156H33.9905C34.4245 5.33837 34.8582 5.46676 35.1988 5.73927C35.2908 5.8321 35.3629 5.94271 35.4107 6.06435C35.4586 6.18599 35.4811 6.3161 35.477 6.44674C35.4815 6.57009 35.4605 6.69304 35.4154 6.80793C35.3703 6.92281 35.3019 7.02716 35.2147 7.11447L35.2067 7.10652ZM60.5485 4.30843L64.4675 0H61.8601L58.8236 3.54531V0H56.7489V9.26073H58.8236V5.36566L61.9396 9.29253H64.6423L60.5485 4.30843ZM41.5263 0L37.6074 9.26073H39.8252L40.6201 7.38474H44.0223L44.8172 9.26073H47.0191L43.1956 0H41.5263ZM41.2878 5.63593L42.345 2.98887L43.3784 5.63593H41.2878ZM53.2115 3.44992H49.698V0H47.6551V9.26073H49.7059V5.28617H53.1797V9.26073H55.2226V0H53.1718L53.2115 3.44992Z" fill="#3AAA35"/>
<path d="M12.6073 0V6.72496L18.0843 0H12.6073Z" fill="#3AAA35"/>
<path d="M21.9873 0.930054L12.6073 12.4563V15.3259C12.6073 15.2464 12.6073 15.1669 12.647 15.0874L12.7663 14.5787C12.9779 13.8468 13.3169 13.1579 13.7679 12.5437L14.0858 12.1622C14.4367 11.7999 14.8351 11.487 15.2703 11.2321C15.5023 11.1121 15.7412 11.006 15.9857 10.9142C16.5008 10.7588 17.0378 10.689 17.5755 10.7075L18.116 10.779C18.5421 10.8762 18.9536 11.0285 19.3402 11.2321C19.5578 11.3598 19.7675 11.5005 19.9682 11.6534C20.5456 12.137 21.0234 12.7283 21.3752 13.3943L21.5898 13.8553C21.7558 14.3422 21.8808 14.8421 21.9634 15.3498L21.9873 0.930054Z" fill="#3AAA35"/>
<path d="M17.3211 11.7488C15.2703 11.7488 13.601 13.8474 13.601 16.4229C13.601 18.9984 15.2703 21.1049 17.3211 21.1049C19.372 21.1049 21.0493 19.0064 21.0493 16.4229C21.0493 13.8394 19.38 11.7488 17.3211 11.7488ZM17.3211 19.5946C16.089 19.5946 15.0795 18.1717 15.0795 16.4149C15.0795 14.6582 16.0811 13.2353 17.3211 13.2353C18.5612 13.2353 19.5708 14.6582 19.5708 16.4149C19.5708 18.1717 18.5612 19.5946 17.3211 19.5946Z" fill="#3AAA35"/>
<path d="M12.7742 18.283L12.655 17.7742L12.6152 17.5358V23.1558H21.9952V17.5914C21.8786 18.2492 21.681 18.89 21.407 19.4992L21.1526 19.9364C20.7906 20.4991 20.3302 20.9919 19.7933 21.3911L19.364 21.6614C18.9773 21.8647 18.5658 22.0171 18.1399 22.1145C17.8772 22.16 17.6115 22.1865 17.345 22.194C16.9832 22.1841 16.6235 22.1362 16.2718 22.0509C16.0201 21.9759 15.7733 21.8856 15.5326 21.7806C14.9925 21.4952 14.5058 21.1187 14.0938 20.6677L13.7679 20.2862C13.3223 19.6815 12.9861 19.0036 12.7742 18.283Z" fill="#3AAA35"/>
<path d="M0 22.2575L9.37997 10.7313V7.82193C9.37997 7.90142 9.37997 7.98091 9.37997 8.0604L9.25278 8.56915C9.0401 9.30067 8.70113 9.98937 8.25119 10.6041L7.92528 10.9857C7.56975 11.3549 7.1628 11.6708 6.71701 11.9237C6.4857 12.0451 6.24672 12.1513 6.00159 12.2416C5.48679 12.3983 4.9495 12.4681 4.41177 12.4483L3.87122 12.3768C3.43693 12.2819 3.01722 12.1295 2.62321 11.9237C2.40283 11.7964 2.19046 11.6557 1.98728 11.5024C1.4129 11.0179 0.937801 10.4267 0.588235 9.76152L0.373609 9.30047C0.208067 8.81348 0.0831046 8.31363 0 7.80603L0 22.2575Z" fill="#3AAA35"/>
<path d="M4.66611 11.3991C6.71699 11.3991 8.3863 9.30049 8.3863 6.72497C8.3863 4.14946 6.72494 2.04294 4.66611 2.04294C2.60729 2.04294 0.945923 4.14151 0.945923 6.72497C0.945923 9.30844 2.61524 11.3991 4.66611 11.3991ZM4.66611 3.55327C5.90618 3.55327 6.90777 4.97617 6.90777 6.73292C6.90777 8.48968 5.89823 9.91257 4.66611 9.91257C3.434 9.91257 2.42446 8.48968 2.42446 6.73292C2.42446 4.97617 3.434 3.55327 4.66611 3.55327Z" fill="#3AAA35"/>
<path d="M9.21304 4.87281L9.34022 5.38156C9.34022 5.46105 9.34022 5.54054 9.34022 5.61208V0H0V5.56439C0.116182 4.90652 0.313779 4.26567 0.588235 3.6566L0.842607 3.2194C1.20703 2.67023 1.66431 2.18874 2.19396 1.7965L2.62321 1.52623C3.01008 1.32318 3.42153 1.17089 3.84738 1.07313C4.11019 1.02825 4.3758 1.00169 4.64229 0.993641C5.00406 1.00315 5.3638 1.05112 5.71542 1.13672C5.96669 1.21298 6.21349 1.30321 6.45469 1.407C6.9897 1.67366 7.47607 2.02836 7.89348 2.45628L8.2194 2.83784C8.66809 3.45334 9.00695 4.14182 9.22099 4.87281H9.21304Z" fill="#3AAA35"/>
<path d="M9.37195 16.4229L3.90295 23.1399H9.37195V16.4229Z" fill="#3AAA35"/>
<path d="M19.3402 0L0.540527 23.1399H2.61525L21.4547 0H19.3402Z" fill="#3AAA35"/>
<path d="M11.6694 21.5501H9.24487V23.1399H11.6694V21.5501Z" fill="#3AAA35"/>
<path d="M22.9253 21.5501V23.1399C23.454 23.1787 23.9462 23.4238 24.2957 23.8224C24.6452 24.221 24.824 24.7411 24.7933 25.2703C24.7943 25.8118 24.5882 26.3333 24.2173 26.7278C23.8464 27.1224 23.3387 27.3602 22.7981 27.3927C21.7514 27.3318 20.7158 27.145 19.7138 26.8363L10.1351 24.4515C4.86487 23.1956 0 24.6423 0 28.0843H1.58983C1.58983 26.8124 4.062 25.9619 9.34817 27.2894L19.0779 29.6503C20.8822 30.2017 22.821 30.1175 24.5708 29.4118C25.2545 29.0427 25.8255 28.4952 26.223 27.8276C26.6205 27.1599 26.8297 26.3971 26.8283 25.62C26.8442 25.0935 26.7552 24.569 26.5665 24.0771C26.3779 23.5852 26.0933 23.1357 25.7294 22.7548C25.3655 22.3739 24.9295 22.0691 24.4467 21.8582C23.964 21.6473 23.4441 21.5344 22.9173 21.5262L22.9253 21.5501Z" fill="#3AAA35"/>
</g>
<defs>
<clipPath id="clip0">
<rect width="141.916" height="30" fill="white"/>
</clipPath>
</defs>
</svg>
