<svg width="106" height="38" viewBox="0 0 106 38" fill="none" xmlns="http://www.w3.org/2000/svg">
<rect width="106" height="38" rx="6" fill="#A7A7A7"/>
<path d="M36.8511 9.69702C36.8511 9.39494 36.7404 9.15535 36.519 8.97827C36.3003 8.79858 35.9917 8.70874 35.5933 8.70874C35.2599 8.70874 34.98 8.80119 34.7534 8.98608C34.5295 9.16838 34.4175 9.39494 34.4175 9.66577H33.6675C33.6675 9.36369 33.7495 9.09285 33.9136 8.85327C34.0802 8.61369 34.312 8.42749 34.6089 8.29468C34.9058 8.15926 35.2339 8.09155 35.5933 8.09155C36.2287 8.09155 36.7222 8.23478 37.0737 8.52124C37.4253 8.80509 37.6011 9.20093 37.6011 9.70874C37.6011 9.97176 37.5203 10.2113 37.3589 10.4275C37.1974 10.6436 36.9722 10.8142 36.6831 10.9392C37.3524 11.1632 37.687 11.6072 37.687 12.2712C37.687 12.7817 37.4969 13.1866 37.1167 13.4861C36.7365 13.7856 36.2287 13.9353 35.5933 13.9353C35.2157 13.9353 34.8719 13.8689 34.562 13.7361C34.2547 13.6007 34.0151 13.4093 33.8433 13.1619C33.6714 12.9145 33.5854 12.6202 33.5854 12.2791H34.3354C34.3354 12.5785 34.4539 12.8285 34.6909 13.0291C34.9279 13.227 35.2287 13.3259 35.5933 13.3259C36.0021 13.3259 36.3276 13.2309 36.5698 13.0408C36.8146 12.8507 36.937 12.5994 36.937 12.2869C36.937 11.6202 36.5243 11.2804 35.6987 11.2673H34.9956V10.6501H35.6948C36.075 10.6423 36.3628 10.5564 36.5581 10.3923C36.7534 10.2283 36.8511 9.9965 36.8511 9.69702ZM41.1792 13.8572C41.1375 13.7738 41.1037 13.6254 41.0776 13.4119C40.7417 13.7608 40.3407 13.9353 39.8745 13.9353C39.4578 13.9353 39.1154 13.8181 38.8472 13.5837C38.5815 13.3468 38.4487 13.0473 38.4487 12.6853C38.4487 12.2452 38.6154 11.9041 38.9487 11.6619C39.2847 11.4171 39.756 11.2947 40.3628 11.2947H41.0659V10.9626C41.0659 10.71 40.9904 10.5095 40.8394 10.3611C40.6883 10.21 40.4657 10.1345 40.1714 10.1345C39.9136 10.1345 39.6974 10.1996 39.5229 10.3298C39.3485 10.46 39.2612 10.6176 39.2612 10.8025H38.5347C38.5347 10.5916 38.6089 10.3884 38.7573 10.1931C38.9084 9.9952 39.1115 9.83895 39.3667 9.72437C39.6245 9.60978 39.9071 9.55249 40.2144 9.55249C40.7013 9.55249 41.0828 9.67489 41.3589 9.91968C41.6349 10.1619 41.7782 10.4965 41.7886 10.9236V12.8689C41.7886 13.2569 41.8381 13.5655 41.937 13.7947V13.8572H41.1792ZM39.98 13.3064C40.2065 13.3064 40.4214 13.2478 40.6245 13.1306C40.8276 13.0134 40.9748 12.8611 41.0659 12.6736V11.8064H40.4995C39.6141 11.8064 39.1714 12.0655 39.1714 12.5837C39.1714 12.8103 39.2469 12.9874 39.3979 13.115C39.549 13.2426 39.743 13.3064 39.98 13.3064ZM45.6519 10.2283H43.7026V13.8572H42.9761V9.63062H45.6519V10.2283ZM49.8511 11.7908C49.8511 12.434 49.7039 12.9522 49.4097 13.3455C49.1154 13.7387 48.717 13.9353 48.2144 13.9353C47.7013 13.9353 47.2977 13.7725 47.0034 13.447V15.4822H46.2808V9.63062H46.9409L46.9761 10.0994C47.2703 9.73478 47.6792 9.55249 48.2026 9.55249C48.7104 9.55249 49.1115 9.7439 49.4058 10.1267C49.7026 10.5095 49.8511 11.0421 49.8511 11.7244V11.7908ZM49.1284 11.7087C49.1284 11.2322 49.0269 10.8559 48.8237 10.5798C48.6206 10.3038 48.342 10.1658 47.9878 10.1658C47.5503 10.1658 47.2222 10.3598 47.0034 10.7478V12.7673C47.2196 13.1528 47.5503 13.3455 47.9956 13.3455C48.342 13.3455 48.6167 13.2087 48.8198 12.9353C49.0256 12.6593 49.1284 12.2504 49.1284 11.7087ZM52.1089 12.7986L53.0933 9.63062H53.8667L52.1675 14.5095C51.9045 15.2126 51.4865 15.5642 50.9136 15.5642L50.7769 15.5525L50.5073 15.5017V14.9158L50.7026 14.9314C50.9474 14.9314 51.1375 14.8819 51.2729 14.783C51.411 14.684 51.5243 14.503 51.6128 14.24L51.7729 13.8103L50.2651 9.63062H51.0542L52.1089 12.7986ZM56.8394 10.7869C56.8394 10.5889 56.7638 10.4327 56.6128 10.3181C56.4618 10.2009 56.2547 10.1423 55.9917 10.1423C55.7365 10.1423 55.5229 10.2087 55.3511 10.3416C55.1818 10.4744 55.0972 10.6306 55.0972 10.8103H54.3784C54.3784 10.4431 54.5321 10.1423 54.8394 9.90796C55.1466 9.67358 55.5308 9.5564 55.9917 9.5564C56.4865 9.5564 56.8719 9.66317 57.1479 9.87671C57.424 10.0876 57.562 10.3897 57.562 10.783C57.562 10.9731 57.5047 11.1475 57.3901 11.3064C57.2756 11.4653 57.1128 11.5916 56.9019 11.6853C57.394 11.852 57.6401 12.1801 57.6401 12.6697C57.6401 13.0577 57.4904 13.365 57.1909 13.5916C56.8914 13.8181 56.4917 13.9314 55.9917 13.9314C55.5047 13.9314 55.1024 13.8129 54.7847 13.5759C54.4696 13.3363 54.312 13.0134 54.312 12.6072H55.0308C55.0308 12.8129 55.1219 12.99 55.3042 13.1384C55.4891 13.2843 55.7183 13.3572 55.9917 13.3572C56.2677 13.3572 56.4904 13.2934 56.6597 13.1658C56.8289 13.0382 56.9136 12.8728 56.9136 12.6697C56.9136 12.4327 56.842 12.2634 56.6987 12.1619C56.5581 12.0577 56.3381 12.0056 56.0386 12.0056H55.3159V11.3962H56.1011C56.5933 11.3832 56.8394 11.1801 56.8394 10.7869ZM61.312 9.63062H62.0347V13.8572H61.312V10.7751L59.3628 13.8572H58.6401V9.63062H59.3628V12.7166L61.312 9.63062ZM66.3354 10.2166H64.9175V13.8572H64.1948V10.2166H62.8042V9.63062H66.3354V10.2166ZM68.48 13.9353C67.9071 13.9353 67.4409 13.7478 67.0815 13.3728C66.7222 12.9952 66.5425 12.4913 66.5425 11.8611V11.7283C66.5425 11.309 66.6219 10.9353 66.7808 10.6072C66.9422 10.2764 67.1662 10.0186 67.4526 9.83374C67.7417 9.64624 68.0542 9.55249 68.3901 9.55249C68.9396 9.55249 69.3667 9.73348 69.6714 10.0955C69.9761 10.4574 70.1284 10.9757 70.1284 11.6501V11.9509H67.2651C67.2756 12.3676 67.3966 12.7048 67.6284 12.9626C67.8628 13.2179 68.1597 13.3455 68.519 13.3455C68.7743 13.3455 68.9904 13.2934 69.1675 13.1892C69.3446 13.085 69.4995 12.947 69.6323 12.7751L70.0737 13.1189C69.7196 13.6632 69.1883 13.9353 68.48 13.9353ZM68.3901 10.1462C68.0985 10.1462 67.8537 10.253 67.6558 10.4666C67.4578 10.6775 67.3354 10.9744 67.2886 11.3572H69.4058V11.3025C69.3849 10.9353 69.286 10.6514 69.1089 10.4509C68.9318 10.2478 68.6922 10.1462 68.3901 10.1462ZM73.019 13.8572V9.63062H74.6675C75.23 9.63062 75.661 9.72957 75.9604 9.92749C76.2625 10.1228 76.4136 10.4106 76.4136 10.7908C76.4136 10.9861 76.355 11.1632 76.2378 11.322C76.1206 11.4783 75.9474 11.5981 75.7183 11.6814C75.9735 11.7413 76.1779 11.8585 76.3315 12.033C76.4878 12.2074 76.5659 12.4158 76.5659 12.658C76.5659 13.046 76.4227 13.3429 76.1362 13.5486C75.8524 13.7543 75.45 13.8572 74.9292 13.8572H73.019ZM73.7417 12.0017V13.2751H74.937C75.2391 13.2751 75.4644 13.2192 75.6128 13.1072C75.7638 12.9952 75.8394 12.8376 75.8394 12.6345C75.8394 12.2126 75.5295 12.0017 74.9097 12.0017H73.7417ZM73.7417 11.4236H74.6753C75.3524 11.4236 75.6909 11.2257 75.6909 10.8298C75.6909 10.434 75.3706 10.2296 74.73 10.2166H73.7417V11.4236Z" fill="white"/>
<path d="M23.71 18.5564C23.6873 15.9468 25.777 14.6773 25.8726 14.6182C24.6891 12.8344 22.8547 12.5907 22.2101 12.5713C20.6695 12.4037 19.175 13.5243 18.3902 13.5243C17.5897 13.5243 16.3812 12.5875 15.0786 12.615C13.4025 12.6417 11.8344 13.6449 10.9744 15.2028C9.19954 18.3791 10.5232 23.0469 12.2237 25.6144C13.0743 26.8726 14.0682 28.2758 15.3692 28.2264C16.642 28.173 17.1174 27.3884 18.6534 27.3884C20.1752 27.3884 20.6217 28.2264 21.9485 28.1948C23.3145 28.173 24.1745 26.9317 24.9953 25.663C25.9783 24.2226 26.3731 22.8024 26.3888 22.7295C26.3574 22.7182 23.7367 21.6834 23.71 18.5564ZM21.2036 10.8823C21.8882 9.99733 22.3566 8.79334 22.2266 7.57153C21.2357 7.61688 19.9966 8.28 19.2831 9.14555C18.6518 9.90826 18.0879 11.1584 18.2335 12.3341C19.3465 12.4199 20.4893 11.7535 21.2036 10.8823Z" fill="white"/>
<path d="M42.1454 28.0458H40.3666L39.3923 24.8807H36.0055L35.0773 28.0458H33.3456L36.7018 17.2706H38.7743L42.1454 28.0458ZM39.0986 23.5529L38.2174 20.7392C38.1242 20.4518 37.9487 19.7749 37.6918 18.7094H37.6605C37.5571 19.1677 37.3919 19.8446 37.1655 20.7392L36.2992 23.5529H39.0986ZM50.7596 24.0654C50.7596 25.3868 50.4126 26.4313 49.7179 27.198C49.096 27.8806 48.3229 28.2215 47.401 28.2215C46.4055 28.2215 45.6896 27.8547 45.2549 27.1195V31.1962H43.585V22.8298C43.585 21.9999 43.5639 21.1489 43.5231 20.2761H44.9917L45.0849 21.5076H45.1163C45.6732 20.5797 46.5183 20.1158 47.6524 20.1158C48.5391 20.1158 49.2792 20.4777 49.8714 21.2024C50.4627 21.9287 50.7596 22.8825 50.7596 24.0654ZM49.0584 24.1286C49.0584 23.3723 48.8939 22.7489 48.5634 22.2574C48.2023 21.7465 47.7174 21.4906 47.1096 21.4906C46.6977 21.4906 46.3233 21.6331 45.9888 21.9141C45.6536 22.1975 45.4343 22.5675 45.3317 23.0258C45.2859 23.1972 45.2598 23.3735 45.2541 23.5513V24.8475C45.2541 25.4119 45.4217 25.8888 45.757 26.2791C46.0922 26.6677 46.5277 26.8628 47.0634 26.8628C47.6924 26.8628 48.1819 26.611 48.532 26.1114C48.8829 25.6103 49.0584 24.9496 49.0584 24.1286ZM59.4043 24.0654C59.4043 25.3868 59.0574 26.4313 58.3626 27.198C57.7399 27.8806 56.9676 28.2215 56.045 28.2215C55.0495 28.2215 54.3336 27.8547 53.8989 27.1195V31.1962H52.229V22.8298C52.229 21.9999 52.2078 21.1489 52.1671 20.2761H53.6357L53.7289 21.5076H53.7602C54.3163 20.5797 55.1615 20.1158 56.2964 20.1158C57.1822 20.1158 57.9224 20.4777 58.5161 21.2024C59.1067 21.9287 59.4043 22.8825 59.4043 24.0654ZM57.7023 24.1286C57.7023 23.3723 57.5371 22.7489 57.2065 22.2574C56.8454 21.7465 56.3622 21.4906 55.7544 21.4906C55.3424 21.4906 54.968 21.6331 54.632 21.9141C54.2968 22.1975 54.0782 22.5675 53.9756 23.0258C53.9247 23.2395 53.8973 23.4136 53.8973 23.5513V24.8475C53.8973 25.4119 54.0657 25.8888 54.3994 26.2791C54.7346 26.6669 55.1701 26.8628 55.7074 26.8628C56.3371 26.8628 56.8267 26.611 57.176 26.1114C57.5269 25.6103 57.7023 24.9496 57.7023 24.1286ZM69.0696 25.0232C69.0696 25.9406 68.7595 26.6863 68.1431 27.262C67.4648 27.8903 66.5178 28.2053 65.3038 28.2053C64.1822 28.2053 63.283 27.9818 62.6047 27.5341L62.9908 26.0953C63.7232 26.5438 64.5276 26.7673 65.4032 26.7673C66.033 26.7673 66.5225 26.6199 66.8718 26.3276C67.222 26.0345 67.399 25.6426 67.399 25.1536C67.399 24.7156 67.2525 24.3488 66.965 24.05C66.676 23.7521 66.1982 23.4743 65.527 23.2193C63.702 22.5157 62.7888 21.4866 62.7888 20.1328C62.7888 19.2486 63.1115 18.5248 63.7553 17.9588C64.3991 17.3937 65.2529 17.1111 66.315 17.1111C67.2635 17.1111 68.0538 17.2819 68.6812 17.6228L68.2621 19.03C67.6715 18.6997 67.005 18.5345 66.2593 18.5345C65.6703 18.5345 65.2082 18.6843 64.8777 18.9822C64.5996 19.2486 64.4586 19.5733 64.4586 19.9587C64.4586 20.3838 64.6192 20.7368 64.9388 21.0137C65.216 21.2688 65.722 21.5465 66.4536 21.8445C67.3512 22.2185 68.0107 22.6541 68.4329 23.1545C68.8582 23.6549 69.0696 24.2792 69.0696 25.0232ZM74.6049 21.5716H72.7642V25.3439C72.7642 26.3033 73.0885 26.7819 73.7386 26.7819C74.037 26.7819 74.2845 26.756 74.4803 26.7017L74.5266 28.0126C74.1976 28.1397 73.7644 28.2037 73.2279 28.2037C72.5684 28.2037 72.053 27.9956 71.681 27.5794C71.3105 27.1632 71.1241 26.4661 71.1241 25.4848V21.5684H70.0276V20.2729H71.1241V18.8503L72.7642 18.3386V20.2729H74.6049V21.5716ZM82.8932 24.097C82.8932 25.2912 82.5627 26.2718 81.9032 27.0385C81.2132 27.828 80.2952 28.2215 79.1509 28.2215C78.0465 28.2215 77.1685 27.8433 76.5137 27.0879C75.8589 26.3309 75.5315 25.3771 75.5315 24.2265C75.5315 23.0225 75.8698 22.0363 76.5442 21.2696C77.2201 20.502 78.1303 20.1182 79.2746 20.1182C80.3774 20.1182 81.2633 20.4972 81.9337 21.2534C82.5744 21.987 82.8932 22.9343 82.8932 24.097ZM81.1622 24.1366C81.1622 23.4249 81.0134 22.8144 80.715 22.3035C80.3649 21.6866 79.8636 21.3781 79.2143 21.3781C78.5454 21.3781 78.0324 21.6866 77.6831 22.3035C77.3838 22.8144 77.235 23.4355 77.235 24.169C77.235 24.8816 77.3838 25.4937 77.6831 26.003C78.0441 26.6199 78.5478 26.9284 79.2002 26.9284C79.8386 26.9284 80.3391 26.6134 80.7009 25.9876C81.0079 25.4645 81.1622 24.85 81.1622 24.1366ZM88.3235 21.7943C88.1498 21.7618 87.9737 21.7459 87.7972 21.7465C87.2097 21.7465 86.7554 21.9748 86.4359 22.4347C86.1586 22.8395 86.0192 23.3513 86.0192 23.969V28.0458H84.3493V22.723C84.3508 21.9073 84.3346 21.0918 84.3007 20.2769H85.7552L85.8163 21.7635H85.8625C86.0396 21.2526 86.3168 20.8405 86.6975 20.532C87.0459 20.2624 87.4693 20.1164 87.9045 20.1158C88.0588 20.1158 88.1982 20.1271 88.3219 20.1474L88.3235 21.7943ZM95.7918 23.7933C95.796 24.0558 95.7756 24.318 95.7307 24.5763H90.721C90.7398 25.3439 90.9826 25.9317 91.4479 26.3365C91.8701 26.6977 92.416 26.879 93.0865 26.879C93.8282 26.879 94.5049 26.7576 95.1135 26.5122L95.3751 27.7098C94.6639 28.0304 93.8243 28.1899 92.8554 28.1899C91.6899 28.1899 90.7751 27.8353 90.1093 27.1276C89.4451 26.4191 89.1122 25.4669 89.1122 24.2743C89.1122 23.1035 89.4216 22.1278 90.0412 21.3497C90.6897 20.519 91.5662 20.1036 92.669 20.1036C93.7522 20.1036 94.5723 20.519 95.1292 21.3497C95.5701 22.008 95.7918 22.8242 95.7918 23.7933ZM94.1995 23.3456C94.2112 22.8331 94.1016 22.3918 93.8752 22.0185C93.5862 21.5376 93.1413 21.2979 92.5452 21.2979C91.9993 21.2979 91.5544 21.5319 91.2161 22.0015C90.938 22.3748 90.7727 22.8234 90.7218 23.344L94.1995 23.3456Z" fill="white"/>
</svg>
