<svg width="106" height="38" viewBox="0 0 106 38" fill="none" xmlns="http://www.w3.org/2000/svg">
<rect width="106" height="38" rx="6" fill="#A7A7A7"/>
<path d="M36.7454 9.69702C36.7454 9.39494 36.6347 9.15535 36.4133 8.97827C36.1946 8.79858 35.886 8.70874 35.4875 8.70874C35.1542 8.70874 34.8743 8.80119 34.6477 8.98608C34.4237 9.16838 34.3118 9.39494 34.3118 9.66577H33.5618C33.5618 9.36369 33.6438 9.09285 33.8079 8.85327C33.9745 8.61369 34.2063 8.42749 34.5032 8.29468C34.8 8.15926 35.1282 8.09155 35.4875 8.09155C36.123 8.09155 36.6165 8.23478 36.968 8.52124C37.3196 8.80509 37.4954 9.20093 37.4954 9.70874C37.4954 9.97176 37.4146 10.2113 37.2532 10.4275C37.0917 10.6436 36.8665 10.8142 36.5774 10.9392C37.2467 11.1632 37.5813 11.6072 37.5813 12.2712C37.5813 12.7817 37.3912 13.1866 37.011 13.4861C36.6308 13.7856 36.123 13.9353 35.4875 13.9353C35.1099 13.9353 34.7662 13.8689 34.4563 13.7361C34.149 13.6007 33.9094 13.4093 33.7375 13.1619C33.5657 12.9145 33.4797 12.6202 33.4797 12.2791H34.2297C34.2297 12.5785 34.3482 12.8285 34.5852 13.0291C34.8222 13.227 35.123 13.3259 35.4875 13.3259C35.8964 13.3259 36.2219 13.2309 36.4641 13.0408C36.7089 12.8507 36.8313 12.5994 36.8313 12.2869C36.8313 11.6202 36.4185 11.2804 35.593 11.2673H34.8899V10.6501H35.5891C35.9693 10.6423 36.2571 10.5564 36.4524 10.3923C36.6477 10.2283 36.7454 9.9965 36.7454 9.69702ZM41.0735 13.8572C41.0318 13.7738 40.998 13.6254 40.9719 13.4119C40.636 13.7608 40.2349 13.9353 39.7688 13.9353C39.3521 13.9353 39.0097 13.8181 38.7415 13.5837C38.4758 13.3468 38.343 13.0473 38.343 12.6853C38.343 12.2452 38.5097 11.9041 38.843 11.6619C39.179 11.4171 39.6503 11.2947 40.2571 11.2947H40.9602V10.9626C40.9602 10.71 40.8847 10.5095 40.7336 10.3611C40.5826 10.21 40.3599 10.1345 40.0657 10.1345C39.8079 10.1345 39.5917 10.1996 39.4172 10.3298C39.2428 10.46 39.1555 10.6176 39.1555 10.8025H38.429C38.429 10.5916 38.5032 10.3884 38.6516 10.1931C38.8027 9.9952 39.0058 9.83895 39.261 9.72437C39.5188 9.60978 39.8014 9.55249 40.1086 9.55249C40.5956 9.55249 40.9771 9.67489 41.2532 9.91968C41.5292 10.1619 41.6724 10.4965 41.6829 10.9236V12.8689C41.6829 13.2569 41.7323 13.5655 41.8313 13.7947V13.8572H41.0735ZM39.8743 13.3064C40.1008 13.3064 40.3157 13.2478 40.5188 13.1306C40.7219 13.0134 40.8691 12.8611 40.9602 12.6736V11.8064H40.3938C39.5084 11.8064 39.0657 12.0655 39.0657 12.5837C39.0657 12.8103 39.1412 12.9874 39.2922 13.115C39.4433 13.2426 39.6373 13.3064 39.8743 13.3064ZM45.5461 10.2283H43.5969V13.8572H42.8704V9.63062H45.5461V10.2283ZM49.7454 11.7908C49.7454 12.434 49.5982 12.9522 49.304 13.3455C49.0097 13.7387 48.6112 13.9353 48.1086 13.9353C47.5956 13.9353 47.192 13.7725 46.8977 13.447V15.4822H46.175V9.63062H46.8352L46.8704 10.0994C47.1646 9.73478 47.5735 9.55249 48.0969 9.55249C48.6047 9.55249 49.0058 9.7439 49.3 10.1267C49.5969 10.5095 49.7454 11.0421 49.7454 11.7244V11.7908ZM49.0227 11.7087C49.0227 11.2322 48.9211 10.8559 48.718 10.5798C48.5149 10.3038 48.2362 10.1658 47.8821 10.1658C47.4446 10.1658 47.1165 10.3598 46.8977 10.7478V12.7673C47.1139 13.1528 47.4446 13.3455 47.8899 13.3455C48.2362 13.3455 48.511 13.2087 48.7141 12.9353C48.9198 12.6593 49.0227 12.2504 49.0227 11.7087ZM52.0032 12.7986L52.9875 9.63062H53.761L52.0618 14.5095C51.7987 15.2126 51.3808 15.5642 50.8079 15.5642L50.6711 15.5525L50.4016 15.5017V14.9158L50.5969 14.9314C50.8417 14.9314 51.0318 14.8819 51.1672 14.783C51.3053 14.684 51.4185 14.503 51.5071 14.24L51.6672 13.8103L50.1594 9.63062H50.9485L52.0032 12.7986ZM56.7336 10.7869C56.7336 10.5889 56.6581 10.4327 56.5071 10.3181C56.356 10.2009 56.149 10.1423 55.886 10.1423C55.6308 10.1423 55.4172 10.2087 55.2454 10.3416C55.0761 10.4744 54.9915 10.6306 54.9915 10.8103H54.2727C54.2727 10.4431 54.4264 10.1423 54.7336 9.90796C55.0409 9.67358 55.425 9.5564 55.886 9.5564C56.3808 9.5564 56.7662 9.66317 57.0422 9.87671C57.3183 10.0876 57.4563 10.3897 57.4563 10.783C57.4563 10.9731 57.399 11.1475 57.2844 11.3064C57.1698 11.4653 57.0071 11.5916 56.7961 11.6853C57.2883 11.852 57.5344 12.1801 57.5344 12.6697C57.5344 13.0577 57.3847 13.365 57.0852 13.5916C56.7857 13.8181 56.386 13.9314 55.886 13.9314C55.399 13.9314 54.9967 13.8129 54.679 13.5759C54.3639 13.3363 54.2063 13.0134 54.2063 12.6072H54.925C54.925 12.8129 55.0162 12.99 55.1985 13.1384C55.3834 13.2843 55.6125 13.3572 55.886 13.3572C56.162 13.3572 56.3847 13.2934 56.554 13.1658C56.7232 13.0382 56.8079 12.8728 56.8079 12.6697C56.8079 12.4327 56.7362 12.2634 56.593 12.1619C56.4524 12.0577 56.2323 12.0056 55.9329 12.0056H55.2102V11.3962H55.9954C56.4875 11.3832 56.7336 11.1801 56.7336 10.7869ZM61.2063 9.63062H61.929V13.8572H61.2063V10.7751L59.2571 13.8572H58.5344V9.63062H59.2571V12.7166L61.2063 9.63062ZM66.2297 10.2166H64.8118V13.8572H64.0891V10.2166H62.6985V9.63062H66.2297V10.2166ZM68.3743 13.9353C67.8014 13.9353 67.3352 13.7478 66.9758 13.3728C66.6165 12.9952 66.4368 12.4913 66.4368 11.8611V11.7283C66.4368 11.309 66.5162 10.9353 66.675 10.6072C66.8365 10.2764 67.0605 10.0186 67.3469 9.83374C67.636 9.64624 67.9485 9.55249 68.2844 9.55249C68.8339 9.55249 69.261 9.73348 69.5657 10.0955C69.8704 10.4574 70.0227 10.9757 70.0227 11.6501V11.9509H67.1594C67.1698 12.3676 67.2909 12.7048 67.5227 12.9626C67.7571 13.2179 68.054 13.3455 68.4133 13.3455C68.6685 13.3455 68.8847 13.2934 69.0618 13.1892C69.2389 13.085 69.3938 12.947 69.5266 12.7751L69.968 13.1189C69.6139 13.6632 69.0826 13.9353 68.3743 13.9353ZM68.2844 10.1462C67.9928 10.1462 67.748 10.253 67.55 10.4666C67.3521 10.6775 67.2297 10.9744 67.1829 11.3572H69.3V11.3025C69.2792 10.9353 69.1803 10.6514 69.0032 10.4509C68.8261 10.2478 68.5865 10.1462 68.2844 10.1462ZM72.9133 13.8572V9.63062H74.5618C75.1243 9.63062 75.5553 9.72957 75.8547 9.92749C76.1568 10.1228 76.3079 10.4106 76.3079 10.7908C76.3079 10.9861 76.2493 11.1632 76.1321 11.322C76.0149 11.4783 75.8417 11.5981 75.6125 11.6814C75.8678 11.7413 76.0722 11.8585 76.2258 12.033C76.3821 12.2074 76.4602 12.4158 76.4602 12.658C76.4602 13.046 76.317 13.3429 76.0305 13.5486C75.7467 13.7543 75.3443 13.8572 74.8235 13.8572H72.9133ZM73.636 12.0017V13.2751H74.8313C75.1334 13.2751 75.3586 13.2192 75.5071 13.1072C75.6581 12.9952 75.7336 12.8376 75.7336 12.6345C75.7336 12.2126 75.4237 12.0017 74.804 12.0017H73.636ZM73.636 11.4236H74.5696C75.2467 11.4236 75.5852 11.2257 75.5852 10.8298C75.5852 10.434 75.2649 10.2296 74.6243 10.2166H73.636V11.4236Z" fill="white"/>
<path d="M23.6044 18.5564C23.5817 15.9468 25.6714 14.6773 25.7669 14.6182C24.5834 12.8344 22.7491 12.5907 22.1045 12.5713C20.5638 12.4037 19.0694 13.5243 18.2845 13.5243C17.4841 13.5243 16.2755 12.5875 14.973 12.615C13.2968 12.6417 11.7287 13.6449 10.8687 15.2028C9.09389 18.3791 10.4176 23.0469 12.118 25.6144C12.9686 26.8726 13.9626 28.2758 15.2636 28.2264C16.5363 28.173 17.0118 27.3884 18.5477 27.3884C20.0696 27.3884 20.516 28.2264 21.8429 28.1948C23.2088 28.173 24.0689 26.9317 24.8897 25.663C25.8727 24.2226 26.2674 22.8024 26.2831 22.7295C26.2518 22.7182 23.631 21.6834 23.6044 18.5564ZM21.098 10.8823C21.7825 9.99733 22.2509 8.79334 22.1209 7.57153C21.1301 7.61688 19.891 8.28 19.1775 9.14555C18.5462 9.90826 17.9822 11.1584 18.1279 12.3341C19.2409 12.4199 20.3837 11.7535 21.098 10.8823Z" fill="white"/>
<path d="M42.0397 28.0458H40.2609L39.2866 24.8807H35.8998L34.9716 28.0458H33.2399L36.5961 17.2706H38.6686L42.0397 28.0458ZM38.9928 23.5529L38.1117 20.7392C38.0185 20.4518 37.843 19.7749 37.5861 18.7094H37.5548C37.4514 19.1677 37.2861 19.8446 37.0598 20.7392L36.1935 23.5529H38.9928ZM50.6539 24.0654C50.6539 25.3868 50.3069 26.4313 49.6122 27.198C48.9903 27.8806 48.2172 28.2215 47.2953 28.2215C46.2998 28.2215 45.5839 27.8547 45.1492 27.1195V31.1962H43.4793V22.8298C43.4793 21.9999 43.4582 21.1489 43.4174 20.2761H44.886L44.9792 21.5076H45.0106C45.5675 20.5797 46.4126 20.1158 47.5467 20.1158C48.4334 20.1158 49.1735 20.4777 49.7657 21.2024C50.357 21.9287 50.6539 22.8825 50.6539 24.0654ZM48.9527 24.1286C48.9527 23.3723 48.7882 22.7489 48.4576 22.2574C48.0966 21.7465 47.6117 21.4906 47.0039 21.4906C46.5919 21.4906 46.2175 21.6331 45.8831 21.9141C45.5479 22.1975 45.3286 22.5675 45.226 23.0258C45.1801 23.1972 45.1541 23.3735 45.1484 23.5513V24.8475C45.1484 25.4119 45.316 25.8888 45.6513 26.2791C45.9865 26.6677 46.422 26.8628 46.9577 26.8628C47.5867 26.8628 48.0762 26.611 48.4263 26.1114C48.7772 25.6103 48.9527 24.9496 48.9527 24.1286ZM59.2986 24.0654C59.2986 25.3868 58.9516 26.4313 58.2569 27.198C57.6342 27.8806 56.8619 28.2215 55.9393 28.2215C54.9437 28.2215 54.2278 27.8547 53.7931 27.1195V31.1962H52.1233V22.8298C52.1233 21.9999 52.1021 21.1489 52.0614 20.2761H53.53L53.6232 21.5076H53.6545C54.2106 20.5797 55.0558 20.1158 56.1907 20.1158C57.0765 20.1158 57.8167 20.4777 58.4104 21.2024C59.001 21.9287 59.2986 22.8825 59.2986 24.0654ZM57.5966 24.1286C57.5966 23.3723 57.4313 22.7489 57.1008 22.2574C56.7397 21.7465 56.2565 21.4906 55.6487 21.4906C55.2367 21.4906 54.8623 21.6331 54.5263 21.9141C54.191 22.1975 53.9725 22.5675 53.8699 23.0258C53.819 23.2395 53.7916 23.4136 53.7916 23.5513V24.8475C53.7916 25.4119 53.96 25.8888 54.2936 26.2791C54.6289 26.6669 55.0644 26.8628 55.6017 26.8628C56.2314 26.8628 56.7209 26.611 57.0703 26.1114C57.4212 25.6103 57.5966 24.9496 57.5966 24.1286ZM68.9639 25.0232C68.9639 25.9406 68.6538 26.6863 68.0373 27.262C67.3591 27.8903 66.4121 28.2053 65.1981 28.2053C64.0764 28.2053 63.1773 27.9818 62.499 27.5341L62.8851 26.0953C63.6175 26.5438 64.4219 26.7673 65.2975 26.7673C65.9273 26.7673 66.4168 26.6199 66.7661 26.3276C67.1162 26.0345 67.2933 25.6426 67.2933 25.1536C67.2933 24.7156 67.1468 24.3488 66.8593 24.05C66.5703 23.7521 66.0925 23.4743 65.4213 23.2193C63.5963 22.5157 62.683 21.4866 62.683 20.1328C62.683 19.2486 63.0057 18.5248 63.6496 17.9588C64.2934 17.3937 65.1472 17.1111 66.2092 17.1111C67.1578 17.1111 67.9481 17.2819 68.5754 17.6228L68.1564 19.03C67.5658 18.6997 66.8993 18.5345 66.1536 18.5345C65.5646 18.5345 65.1025 18.6843 64.772 18.9822C64.4939 19.2486 64.3529 19.5733 64.3529 19.9587C64.3529 20.3838 64.5135 20.7368 64.8331 21.0137C65.1103 21.2688 65.6163 21.5465 66.3479 21.8445C67.2455 22.2185 67.905 22.6541 68.3271 23.1545C68.7525 23.6549 68.9639 24.2792 68.9639 25.0232ZM74.4992 21.5716H72.6585V25.3439C72.6585 26.3033 72.9828 26.7819 73.6329 26.7819C73.9313 26.7819 74.1788 26.756 74.3746 26.7017L74.4208 28.0126C74.0919 28.1397 73.6587 28.2037 73.1222 28.2037C72.4627 28.2037 71.9473 27.9956 71.5753 27.5794C71.2048 27.1632 71.0184 26.4661 71.0184 25.4848V21.5684H69.9218V20.2729H71.0184V18.8503L72.6585 18.3386V20.2729H74.4992V21.5716ZM82.7875 24.097C82.7875 25.2912 82.457 26.2718 81.7975 27.0385C81.1075 27.828 80.1895 28.2215 79.0452 28.2215C77.9408 28.2215 77.0627 27.8433 76.4079 27.0879C75.7531 26.3309 75.4257 25.3771 75.4257 24.2265C75.4257 23.0225 75.7641 22.0363 76.4385 21.2696C77.1144 20.502 78.0246 20.1182 79.1689 20.1182C80.2717 20.1182 81.1576 20.4972 81.828 21.2534C82.4687 21.987 82.7875 22.9343 82.7875 24.097ZM81.0565 24.1366C81.0565 23.4249 80.9077 22.8144 80.6093 22.3035C80.2592 21.6866 79.7579 21.3781 79.1086 21.3781C78.4397 21.3781 77.9267 21.6866 77.5773 22.3035C77.2781 22.8144 77.1293 23.4355 77.1293 24.169C77.1293 24.8816 77.2781 25.4937 77.5773 26.003C77.9384 26.6199 78.442 26.9284 79.0945 26.9284C79.7328 26.9284 80.2333 26.6134 80.5952 25.9876C80.9022 25.4645 81.0565 24.85 81.0565 24.1366ZM88.2178 21.7943C88.0441 21.7618 87.8679 21.7459 87.6915 21.7465C87.104 21.7465 86.6497 21.9748 86.3302 22.4347C86.0529 22.8395 85.9135 23.3513 85.9135 23.969V28.0458H84.2436V22.723C84.2451 21.9073 84.2289 21.0918 84.195 20.2769H85.6495L85.7106 21.7635H85.7568C85.9338 21.2526 86.2111 20.8405 86.5918 20.532C86.9402 20.2624 87.3636 20.1164 87.7988 20.1158C87.9531 20.1158 88.0925 20.1271 88.2162 20.1474L88.2178 21.7943ZM95.6861 23.7933C95.6903 24.0558 95.6699 24.318 95.625 24.5763H90.6153C90.6341 25.3439 90.8769 25.9317 91.3422 26.3365C91.7644 26.6977 92.3103 26.879 92.9807 26.879C93.7225 26.879 94.3992 26.7576 95.0078 26.5122L95.2694 27.7098C94.5582 28.0304 93.7186 28.1899 92.7497 28.1899C91.5842 28.1899 90.6694 27.8353 90.0036 27.1276C89.3394 26.4191 89.0065 25.4669 89.0065 24.2743C89.0065 23.1035 89.3159 22.1278 89.9355 21.3497C90.584 20.519 91.4605 20.1036 92.5633 20.1036C93.6465 20.1036 94.4666 20.519 95.0235 21.3497C95.4644 22.008 95.6861 22.8242 95.6861 23.7933ZM94.0937 23.3456C94.1055 22.8331 93.9958 22.3918 93.7695 22.0185C93.4805 21.5376 93.0356 21.2979 92.4395 21.2979C91.8936 21.2979 91.4487 21.5319 91.1103 22.0015C90.8323 22.3748 90.667 22.8234 90.6161 23.344L94.0937 23.3456Z" fill="white"/>
</svg>
