<svg width="22" height="22" viewBox="0 0 22 22" fill="none" xmlns="http://www.w3.org/2000/svg">
<path d="M6.53756 0.522949H15.0251C16.786 0.522949 18.386 1.24235 19.5452 2.4018C20.7047 3.56101 21.4241 5.16101 21.4241 6.92171V15.4095C21.4241 17.1704 20.7047 18.7704 19.5452 19.9296C18.386 21.0888 16.786 21.8085 15.0251 21.8085H6.53756C4.77661 21.8085 3.17661 21.0888 2.0174 19.9296C0.857949 18.7704 0.13855 17.1704 0.13855 15.4095V6.92171C0.13855 5.16101 0.857949 3.56101 2.0174 2.4018C3.17661 1.24235 4.77661 0.522949 6.53756 0.522949ZM16.5267 4.25791C17.308 4.25791 17.9415 4.89145 17.9415 5.67273C17.9415 6.45426 17.308 7.0878 16.5267 7.0878C15.7454 7.0878 15.1119 6.45426 15.1119 5.67273C15.1119 4.89145 15.7454 4.25791 16.5267 4.25791ZM10.7813 5.6857C12.2942 5.6857 13.6643 6.29918 14.6562 7.29083C15.6478 8.28273 16.2613 9.65279 16.2613 11.1657C16.2613 12.6786 15.6478 14.0487 14.6562 15.0406C13.6643 16.0322 12.2942 16.6457 10.7813 16.6457C9.26839 16.6457 7.89833 16.0322 6.90643 15.0406C5.91478 14.0487 5.3013 12.6786 5.3013 11.1657C5.3013 9.65254 5.91478 8.28248 6.90643 7.29083C7.89833 6.29918 9.26839 5.6857 10.7813 5.6857ZM13.2032 8.74382C12.5836 8.12397 11.7272 7.74067 10.7813 7.74067C9.8354 7.74067 8.97902 8.12397 8.35942 8.74382C7.73957 9.36341 7.35627 10.2198 7.35627 11.1657C7.35627 12.1116 7.73957 12.968 8.35942 13.5876C8.97902 14.2074 9.8354 14.5907 10.7813 14.5907C11.7272 14.5907 12.5836 14.2074 13.2032 13.5876C13.823 12.968 14.2063 12.1116 14.2063 11.1657C14.2063 10.2198 13.823 9.36341 13.2032 8.74382ZM15.0251 2.60972H6.53756C5.35267 2.60972 4.27467 3.09527 3.49265 3.87705C2.71087 4.65907 2.22532 5.73707 2.22532 6.92171V15.4095C2.22532 16.5943 2.71087 17.6723 3.49265 18.4544C4.27467 19.2361 5.35267 19.7217 6.53756 19.7217H15.0251C16.2099 19.7217 17.2879 19.2361 18.07 18.4544C18.8517 17.6723 19.3373 16.5943 19.3373 15.4095V6.92171C19.3373 5.73707 18.8517 4.65907 18.07 3.87705C17.2879 3.09527 16.2099 2.60972 15.0251 2.60972Z" fill="#5B5B5B" fill-opacity="0.5"/>
</svg>
