<svg width="23" height="21" viewBox="0 0 23 21" fill="none" xmlns="http://www.w3.org/2000/svg">
<path fill-rule="evenodd" clip-rule="evenodd" d="M0.898892 8.75215C7.55643 6.12135 14.4236 3.32536 21.0811 0.694564C22.0483 0.277059 22.4869 0.630308 22.2445 1.64475C21.0734 7.49516 19.8208 13.7094 18.6497 19.5598C18.505 20.3219 18.0161 20.4109 17.4013 19.9512C15.9319 18.8598 14.2856 17.6356 12.8162 16.5441C12.2309 16.1191 11.8278 16.128 11.2253 16.6413C10.559 17.1918 9.68466 17.9727 9.01828 18.5232C8.36023 19.0246 7.92626 18.8838 7.67857 18.1312L5.83264 11.9209C4.19149 11.2805 2.50332 10.5868 0.862172 9.94637C0.242424 9.70735 0.268512 9.00454 0.898892 8.75215ZM7.53064 10.841C10.7926 8.76023 14.0405 6.63438 17.3025 4.55364C17.6473 4.35149 17.8079 4.58494 17.5368 4.86805C14.9312 7.38261 12.3257 9.89718 9.7201 12.4117C9.16056 12.9439 8.94563 13.3638 8.86759 13.9682C8.80331 14.5267 8.73941 15.1853 8.67513 15.7439C8.62216 16.2438 8.18319 16.3362 8.01753 15.833C7.72758 14.7682 7.42244 13.6222 7.13249 12.5574C6.93951 11.8529 6.89506 11.2566 7.53064 10.841Z" fill="#5B5B5B" fill-opacity="0.5"/>
</svg>
