<svg width="25" height="19" viewBox="0 0 25 19" fill="none" xmlns="http://www.w3.org/2000/svg">
<path fill-rule="evenodd" clip-rule="evenodd" d="M21.9968 3.01527C22.7921 2.25689 23.3706 1.66279 23.7563 0.680884C21.7375 1.64929 20.9334 1.6883 20.9334 1.6883C20.6646 1.50602 19.6716 0.940426 19.2923 0.766398C15.9006 -0.793858 12.0207 0.893169 12.1608 5.85973C7.79125 5.75396 5.0348 3.86891 2.04631 1.17296C0.500457 3.30106 1.49982 5.60394 3.38893 7.14619C2.63841 7.14844 2.14553 7.04493 1.43101 6.73363C0.890121 9.82413 4.11785 10.8008 4.98439 11.3484L3.16969 11.3964C4.11145 13.604 6.30861 14.3384 7.52561 14.6504C5.37966 16.1582 3.72899 16.6585 0.774902 16.5407C5.26124 19.563 12.8673 18.9449 16.9968 15.5573C21.4727 11.7715 21.8744 7.67653 22.1064 4.83056C22.1064 4.83056 23.6074 3.79164 24.3204 2.53594C23.5274 2.78348 22.8049 2.89975 21.9968 3.01527Z" fill="#5B5B5B" fill-opacity="0.5"/>
</svg>
