<svg width="26" height="15" viewBox="0 0 26 15" fill="none" xmlns="http://www.w3.org/2000/svg">
<path fill-rule="evenodd" clip-rule="evenodd" d="M14.7794 13.6532C14.8814 12.9442 14.8185 12.2026 15.2162 11.538C15.9038 10.5472 16.9287 11.6494 17.4894 12.365C18.7227 13.939 19.3202 14.3987 20.6514 14.4108C21.6637 14.4199 22.4413 14.43 23.4267 14.4117C24.5796 14.3903 25.6851 14.0498 25.0692 12.9125C24.531 11.9171 22.8222 10.1723 21.8865 9.35228C21.1958 8.7469 20.7627 8.30731 21.7744 6.9606C22.6584 5.75578 25.0214 2.53447 25.1423 1.12091C25.1769 0.715519 24.7373 0.709212 24.447 0.701504C23.586 0.678449 21.0148 0.681182 20.0714 0.702345C19.6593 0.711595 19.5028 0.968702 19.3857 1.15651C18.3622 2.87021 17.651 4.68706 16.1538 6.65437C15.7511 7.18358 15.2101 7.19885 14.9338 6.57819C14.273 5.09357 15.4249 1.43933 14.5109 0.517975C13.96 -0.0374448 11.9293 0.0434927 11.1582 0.057648C10.2302 0.0746764 8.58939 0.153862 8.40425 0.996242C8.6273 1.28902 9.64108 0.992598 9.89342 2.58983C10.0205 3.39458 10.0137 4.70934 9.9422 5.52762C9.75874 7.6287 8.96366 7.33263 8.14125 6.36734C6.64913 4.61593 5.75174 2.1944 5.2631 1.18811C5.12736 0.890358 4.88273 0.706479 4.49843 0.705498C3.966 0.704026 1.53276 0.705007 0.989038 0.704797C0.494163 0.704587 0.123392 0.715799 0.0516349 1.06337C-0.0267799 1.60233 1.09002 3.91405 2.10717 5.7342C4.3936 9.82571 6.4595 12.7817 10.4037 14.0983C11.6311 14.508 12.4562 14.4425 13.714 14.4107C14.2023 14.3984 14.6951 14.2041 14.7794 13.6532Z" fill="#5B5B5B" fill-opacity="0.5"/>
</svg>
